<?xml version="1.0" standalone="no"?>
<!DOCTYPE svg PUBLIC "-//W3C//DTD SVG 1.1//EN" "http://www.w3.org/Graphics/SVG/1.1/DTD/svg11.dtd">
<svg xmlns="http://www.w3.org/2000/svg" viewBox="0 0 177.42 177.39" width="177.4199981689453" height="177.38999938964844"><defs><style>.cls-1{fill:#e30613;}</style></defs><g id="Capa_2" data-name="Capa 2"><g id="Capa_11" data-name="Capa 11"><polygon id="MARCO_1" data-name="MARCO 1" class="cls-1" points="8.96 138.46 8.96 8.96 138.46 8.96 147.42 0 0 0 0 147.42 8.96 138.46"/><polygon id="MARCO_2" data-name="MARCO 2" class="cls-1" points="23.96 153.15 23.96 23.65 153.46 23.65 162.42 14.69 15 14.69 15 162.11 23.96 153.15"/><path class="cls-1" d="M30,30V177.39H177.42V30ZM168.46,168.43H39V38.93h129.5Z"/><path class="cls-1" d="M44.18,44.15v57h57v-57Zm41,8.87L76.41,92.48a1.08,1.08,0,0,1-1.15.93H70.07a1.08,1.08,0,0,1-1.14-.93L60.21,53c-.16-.73.15-1.15.93-1.15h4.93a1.09,1.09,0,0,1,1.15.94l5.45,27.83,5.5-27.83a1.09,1.09,0,0,1,1.15-.94h4.93C85,51.87,85.34,52.29,85.18,53Z"/><path class="cls-1" d="M106.21,44.15v57h57v-57ZM148.14,93h-5.51a.81.81,0,0,1-.83-.72l-1.45-7.59h-9.24L129.7,92.3a.79.79,0,0,1-.83.72h-5.55c-.57,0-.83-.31-.68-.88l8.62-39.93a.81.81,0,0,1,.88-.73h7.22a.8.8,0,0,1,.88.73l8.62,39.93C149,92.71,148.76,93,148.14,93Z"/><polygon class="cls-1" points="132.4 78.69 139.05 78.69 135.73 60.57 132.4 78.69"/><path class="cls-1" d="M74.15,119.86H69.37v27.83h4.78a1.85,1.85,0,0,0,2.08-2.08V122A1.88,1.88,0,0,0,74.15,119.86Z"/><path class="cls-1" d="M44.18,106.18v57h57v-57Zm38.9,40.89c0,4.88-2.6,7.47-7.48,7.47H63.14a.72.72,0,0,1-.83-.83V113.83a.74.74,0,0,1,.83-.83H75.6c4.88,0,7.48,2.65,7.48,7.53Z"/><path class="cls-1" d="M137.34,120.1h-3a1.87,1.87,0,0,0-2.08,2.08v24a1.84,1.84,0,0,0,2.08,2.07h3a1.83,1.83,0,0,0,2.07-2.07v-24A1.86,1.86,0,0,0,137.34,120.1Z"/><path class="cls-1" d="M106.21,106.18v57h57v-57Zm39.9,41.29c0,4.88-2.59,7.47-7.47,7.47h-5.82c-4.88,0-7.48-2.59-7.48-7.47V120.88c0-4.88,2.6-7.48,7.48-7.48h5.82c4.88,0,7.47,2.6,7.47,7.48Z"/></g></g></svg>